<svg width="44" height="40" viewBox="0 0 44 40" fill="none" xmlns="http://www.w3.org/2000/svg">
<g clip-path="url(#clip0_683_392)">
<mask id="mask0_683_392" style="mask-type:luminance" maskUnits="userSpaceOnUse" x="0" y="1" width="43" height="39">
<path d="M42.5892 1.26917H0.5271V39.5924H42.5892V1.26917Z" fill="white"/>
</mask>
<g mask="url(#mask0_683_392)">
<g opacity="0.4">
<path d="M35.7054 28.311C33.869 31.4948 30.9727 34.0064 27.4727 35.4499C23.9726 36.8936 20.0678 37.1871 16.3733 36.2843C12.6788 35.3813 9.40478 33.3334 7.06688 30.4631C4.72886 27.5931 3.45998 24.0635 3.45998 20.4308C3.45998 16.7979 4.72886 13.2685 7.06688 10.3983C9.40478 7.52808 12.6788 5.48023 16.3733 4.57729C20.0678 3.67444 23.9726 3.96795 27.4727 5.41152C30.9727 6.85499 33.869 9.36657 35.7054 12.5506H38.6396V11.8537L38.4729 11.5504C36.387 7.75195 33.0241 4.72937 28.9221 2.96584C24.8201 1.20232 20.2155 0.799831 15.8449 1.82269C11.4743 2.84554 7.59001 5.23467 4.81314 8.60796C2.03616 11.9813 0.5271 16.1442 0.5271 20.4308C0.5271 24.7174 2.03616 28.8801 4.81314 32.2535C7.59001 35.6269 11.4743 38.016 15.8449 39.0389C20.2155 40.0617 24.8201 39.6591 28.9221 37.8958C33.0241 36.1321 36.387 33.1097 38.4729 29.311L38.6396 29.0077V28.311H35.7054Z" fill="white"/>
<path d="M31.9258 19.1069H35.6157V15.5991H38.6341V19.1069H42.3238V21.7493H38.6341V25.2961H35.6195V21.7493H31.9258V19.1069ZM11.551 15.8048H9.27515V12.8432H15.2447V28.0413H11.551V15.8048ZM19.9196 27.1049C19.4283 26.6926 19.0366 26.1839 18.772 25.6137C18.5074 25.0438 18.3756 24.4258 18.3862 23.8029C18.3771 23.324 18.4678 22.848 18.6529 22.4023C18.8378 21.9568 19.1135 21.5506 19.4643 21.2067C20.0203 20.6778 20.7027 20.2848 21.453 20.061C20.9018 19.8515 20.4033 19.5335 19.9905 19.1281C19.6611 18.8113 19.404 18.4332 19.2352 18.0177C19.0663 17.602 18.9895 17.1578 19.0093 16.7128C18.9912 16.1887 19.0862 15.6666 19.2882 15.1786C19.4904 14.6907 19.7954 14.2471 20.1845 13.8754C21.3597 12.7368 22.8932 12.485 24.3295 12.485C25.766 12.485 27.2547 12.7368 28.4337 13.8754C28.8227 14.2471 29.1277 14.6907 29.3299 15.1786C29.532 15.6666 29.6269 16.1887 29.6088 16.7128C29.6267 17.1597 29.5472 17.6054 29.375 18.0217C29.2029 18.438 28.9422 18.8159 28.6091 19.1318C28.1988 19.5347 27.7045 19.8511 27.1576 20.061C27.9071 20.2828 28.5894 20.6733 29.1462 21.1995C29.497 21.5434 29.773 21.9498 29.9579 22.3953C30.1429 22.8408 30.2335 23.3168 30.2244 23.7959C30.2349 24.4188 30.1033 25.0366 29.8386 25.6066C29.5738 26.1767 29.1823 26.6854 28.691 27.0979C27.277 28.3036 25.792 28.3745 24.2811 28.3745C22.8446 28.3817 21.3336 28.3143 19.9196 27.1049ZM22.7475 22.0223C22.3522 22.4336 22.1305 22.969 22.1245 23.5262C22.1174 23.8069 22.1688 24.0862 22.2758 24.348C22.3828 24.6098 22.543 24.8488 22.7475 25.0514C23.1819 25.4038 23.7342 25.5975 24.3052 25.5975C24.8762 25.5975 25.4287 25.4038 25.8629 25.0514C26.0708 24.8459 26.233 24.6027 26.34 24.3365C26.447 24.0702 26.4967 23.7863 26.4861 23.5013C26.4936 23.2269 26.4425 22.954 26.3354 22.699C26.2281 22.444 26.0674 22.2126 25.8629 22.0188C25.4217 21.6487 24.8467 21.4554 24.2587 21.4797C23.6995 21.469 23.1581 21.6648 22.7475 22.0258V22.0223ZM22.8932 15.5955C22.7055 15.7616 22.5561 15.9624 22.4537 16.1858C22.3514 16.4091 22.2987 16.65 22.2987 16.8937C22.2987 17.1372 22.3514 17.3782 22.4537 17.6016C22.5561 17.825 22.7055 18.0258 22.8932 18.1917C23.2845 18.5168 23.7875 18.6947 24.3071 18.6919C24.8222 18.7065 25.3225 18.5267 25.6987 18.1917C25.8926 18.0303 26.0467 17.8304 26.1505 17.606C26.2544 17.3818 26.3052 17.1387 26.2994 16.8937C26.3023 16.6456 26.2504 16.3995 26.1468 16.1716C26.0435 15.9437 25.8907 15.7389 25.6987 15.5708C25.3086 15.2583 24.8135 15.0896 24.3034 15.0955C23.7818 15.0856 23.2759 15.2659 22.8895 15.5991L22.8932 15.5955Z" fill="white"/>
</g>
</g>
</g>
<defs>
<clipPath id="clip0_683_392">
<rect width="43.1136" height="39.92" fill="white"/>
</clipPath>
</defs>
</svg>
