<svg width="132" height="20" viewBox="0 0 132 20" fill="none" xmlns="http://www.w3.org/2000/svg">
<mask id="mask0_683_548" style="mask-type:luminance" maskUnits="userSpaceOnUse" x="0" y="0" width="132" height="20">
<path d="M131.641 0H0V19.6479H131.641V0Z" fill="white"/>
</mask>
<g mask="url(#mask0_683_548)">
<path d="M23.658 15.1572V4.43082C23.7326 4.38058 23.768 4.33695 23.8014 4.33695C25.6856 4.33431 27.5777 4.23645 29.4541 4.36339C31.4857 4.49959 32.6233 6.25688 31.9808 8.12264C31.8 8.649 31.358 9.08125 31.0181 9.5864C31.0947 9.62864 31.242 9.70409 31.3855 9.78877C32.3934 10.3918 32.8492 11.3001 32.7608 12.4902C32.6783 13.6128 32.0947 14.3917 31.0966 14.7937C30.5681 15.0065 29.9846 15.1717 29.4207 15.189C27.6425 15.2444 25.8624 15.222 24.0843 15.2259C23.9605 15.2259 23.8368 15.1862 23.658 15.1572ZM25.9941 13.0601C26.2888 13.0601 26.5207 13.0613 26.7505 13.0601C27.6052 13.0535 28.4599 13.08 29.3126 13.0297C29.904 12.9939 30.295 12.555 30.3264 12.0326C30.3618 11.4231 30.1103 10.9417 29.5071 10.8981C28.3499 10.8148 27.1847 10.8743 25.9941 10.8743V13.0601ZM26.0019 8.66885C26.947 8.66885 27.839 8.70971 28.7271 8.65431C29.3539 8.6158 29.7449 8.14778 29.7625 7.59647C29.7822 7.05418 29.3951 6.55847 28.7644 6.51603C27.8587 6.45394 26.945 6.50012 26 6.50012V8.66747L26.0019 8.66885Z" fill="#A6A6A6"/>
<path d="M43.0819 8.64766V15.1664H40.7792V4.36075H42.9974C44.5555 6.43943 46.1784 8.60522 47.7994 10.7698C47.8386 10.7539 47.8779 10.7382 47.9153 10.7223V4.35413H50.2219V15.2287H48.2198C46.591 13.0549 44.9131 10.8162 43.2352 8.57614C43.1841 8.59991 43.133 8.62388 43.0819 8.64766Z" fill="#A6A6A6"/>
<path d="M67.2919 15.192H64.95V4.34119H67.1485C68.7341 6.46086 70.3452 8.61348 71.9544 10.7661C71.9917 10.7543 72.0271 10.7423 72.0625 10.7305V4.3597H74.3907V15.2501C73.7718 15.2501 73.1392 15.2924 72.5183 15.225C72.3218 15.2038 72.1293 14.9088 71.978 14.7053C70.5024 12.7364 69.0347 10.7596 67.5651 8.78402C67.514 8.71525 67.4786 8.6347 67.4334 8.55787C67.3863 8.57772 67.3391 8.59756 67.2919 8.61741V15.192Z" fill="#A6A6A6"/>
<path d="M88.4645 4.28552H96.4278V6.43824H90.8458V8.57239H95.7637V10.7977H90.8399V13.0378H96.5123V15.1666H88.4665V4.28552H88.4645Z" fill="#A6A6A6"/>
<path d="M63.2739 15.197H60.7747C60.4466 14.4196 60.1165 13.6407 59.7825 12.8473H55.3342C55.0139 13.6089 54.6858 14.3877 54.3479 15.1904H51.9037C53.4421 11.4946 54.9491 7.8729 56.464 4.23657H58.6979C60.201 7.83577 61.7139 11.4577 63.2759 15.1957L63.2739 15.197ZM58.9258 10.5888C58.4563 9.42783 58.0397 8.40044 57.6232 7.37168C57.58 7.38229 57.5348 7.3929 57.4916 7.40469C57.077 8.45074 56.6624 9.49522 56.2282 10.5888H58.9258Z" fill="#A6A6A6"/>
<path d="M85.0025 7.60977C83.971 6.74487 82.8884 6.1684 81.5523 6.48041C80.8764 6.63778 80.3381 7.0278 79.9117 7.57126C78.9136 8.83815 78.9804 10.9287 80.0571 12.1543C80.735 12.9253 81.5975 13.2175 82.6015 13.1422C83.5721 13.0695 84.3128 12.5233 85.0044 11.9415C85.5251 12.4651 86.0104 12.953 86.4957 13.4397C85.3817 15.1388 82.7273 15.8171 80.7173 15.2591C78.3419 14.6007 76.7288 12.5868 76.662 9.94354C76.5991 7.50917 77.8232 5.45304 80.12 4.51289C82.238 3.64548 85.2107 4.18893 86.4584 5.85501C85.9927 6.41439 85.5173 6.98948 85.0025 7.60977Z" fill="#A6A6A6"/>
<path d="M114.335 12.6212C113.965 13.4993 113.618 14.3243 113.258 15.1719H111.287C112.855 11.4814 114.39 7.86622 115.928 4.23657H117.71C119.237 7.82535 120.771 11.4404 122.347 15.1454H120.337C119.993 14.3257 119.64 13.482 119.278 12.6198L114.335 12.6212ZM116.881 6.78991C116.834 6.7793 116.787 6.76751 116.742 6.7569C116.195 8.07645 115.649 9.3962 115.079 10.7739H118.541C117.968 9.40013 117.425 8.09355 116.881 6.78991Z" fill="#A6A6A6"/>
<path d="M103.251 4.38981C105.026 4.38981 106.766 4.23908 108.472 4.43082C110.319 4.63842 111.447 6.13527 111.443 7.91497C111.439 9.87996 110.219 11.3225 108.207 11.616C107.218 11.7616 106.208 11.7536 105.087 11.8237V15.1639H103.251V4.38981ZM105.136 6.0388V9.82435C106.151 9.82435 107.136 9.91965 108.095 9.79665C108.955 9.68564 109.472 8.86848 109.47 7.97726C109.468 7.06874 108.967 6.35729 108.044 6.21858C107.104 6.07711 106.14 6.09421 105.136 6.0388Z" fill="#A6A6A6"/>
<path d="M9.40935 4.32652C8.23441 5.63163 7.06144 6.93805 5.9258 8.19827C5.12417 7.3705 4.42075 6.64314 3.78809 5.98867C5.68214 4.03166 7.65283 1.99931 9.5901 0C11.4724 1.93714 13.4352 3.95496 15.343 5.91597C14.677 6.60345 13.9755 7.32688 13.2741 8.0515C12.1404 6.87322 10.9301 5.61444 9.7198 4.3543C9.61567 4.34503 9.51152 4.33709 9.40935 4.32652Z" fill="#A6A6A6"/>
<path d="M13.1444 11.3093C14.005 12.2019 14.7084 12.9304 15.3312 13.5759C13.445 15.5803 11.5294 17.6166 9.61959 19.6465C7.66463 17.5758 5.73521 15.5328 3.84705 13.5348C4.40112 12.9648 5.12023 12.227 5.89239 11.4323C7.0634 12.6159 8.29337 13.8574 9.5862 15.1638C10.7965 13.8535 11.9714 12.5787 13.1464 11.3081L13.1444 11.3093Z" fill="#A6A6A6"/>
<path d="M127.466 15.1774H125.628C125.611 14.9593 125.583 14.7505 125.579 14.5414C125.573 13.9915 125.515 13.4321 125.589 12.8926C125.782 11.487 125.283 10.3525 124.507 9.23767C123.501 7.79119 122.593 6.26927 121.646 4.779C121.577 4.67321 121.528 4.55554 121.426 4.36117H123.63C124.552 5.85006 125.503 7.38664 126.528 9.04472C127.546 7.42103 128.521 5.86725 129.485 4.32678H131.643C131.474 4.62032 131.362 4.83717 131.23 5.04346C130.089 6.82589 128.931 8.59636 127.817 10.3947C127.613 10.7227 127.497 11.1577 127.483 11.549C127.44 12.7326 127.468 13.9174 127.468 15.1788L127.466 15.1774Z" fill="#A6A6A6"/>
<path d="M35.3367 4.33447H37.6099V15.1798H35.3367V4.33447Z" fill="#A6A6A6"/>
<path d="M2.04336 11.9126C1.34587 11.1867 0.648379 10.4581 0 9.78498C0.650344 9.11853 1.35571 8.39667 2.00016 7.73669C2.623 8.38213 3.33622 9.12128 3.99442 9.8009C3.40302 10.4395 2.70943 11.192 2.04336 11.9126Z" fill="#A6A6A6"/>
<path d="M17.0583 7.62695C17.7774 8.3608 18.4867 9.08423 19.1488 9.75992C18.4808 10.4661 17.7852 11.2011 17.1428 11.8795C16.4629 11.1759 15.7477 10.4368 15.0994 9.76641C15.7065 9.10271 16.4001 8.34371 17.0583 7.62695Z" fill="#A6A6A6"/>
<path d="M11.5902 9.82985C10.9478 10.491 10.2444 11.2156 9.58027 11.8966C8.90242 11.2011 8.19705 10.4818 7.55457 9.82317C8.19116 9.15278 8.89455 8.41107 9.53704 7.73401C10.1697 8.37924 10.8711 9.09718 11.5902 9.82985Z" fill="#A6A6A6"/>
</g>
</svg>
