<svg width="102" height="22" viewBox="0 0 102 22" fill="none" xmlns="http://www.w3.org/2000/svg">
<path d="M14.4412 4.74297e-05H11.527C11.4826 -0.000266936 11.4388 0.00747433 11.3977 0.0228193C11.3567 0.0381643 11.3195 0.0607982 11.2881 0.0894251C11.2569 0.118052 11.2321 0.152082 11.2152 0.189531C11.1985 0.22698 11.1899 0.267121 11.1903 0.307595L11.2551 10.2674C11.2539 10.2807 11.2484 10.2933 11.2392 10.3037C11.2299 10.3141 11.2176 10.3218 11.2036 10.3255C11.1897 10.3295 11.1745 10.3293 11.1608 10.3253C11.1468 10.3212 11.1345 10.3133 11.1256 10.3029L4.02803 0.248454C3.97635 0.171788 3.90385 0.108621 3.81759 0.0651008C3.73154 0.0215808 3.63428 -0.000836724 3.53585 4.74297e-05H0.336781C0.292377 -0.000266936 0.248563 0.00747433 0.207499 0.0228193C0.166435 0.0381643 0.129101 0.0607982 0.0978611 0.0894251C0.0664246 0.118052 0.0416723 0.152082 0.0249717 0.189531C0.0080745 0.22698 -0.000379863 0.267121 1.30944e-05 0.307595V15.8032C-0.000379863 15.8436 0.0080745 15.8837 0.0249717 15.9212C0.0416723 15.9588 0.0664246 15.9928 0.0978611 16.0214C0.129101 16.0499 0.166435 16.0727 0.207499 16.088C0.248563 16.1034 0.292377 16.111 0.336781 16.1108H3.25095C3.29516 16.111 3.33917 16.1034 3.38023 16.088C3.4211 16.0727 3.45843 16.0499 3.48967 16.0214C3.52111 15.9928 3.54586 15.9588 3.56276 15.9212C3.57946 15.8837 3.58791 15.8436 3.58771 15.8032V5.94989C3.5887 5.93657 3.59439 5.9239 3.60343 5.9135C3.61266 5.90311 3.62504 5.89548 3.63899 5.89165C3.65314 5.88782 3.66807 5.88794 3.68202 5.89199C3.69597 5.89606 3.70816 5.90385 3.7172 5.91439L10.737 15.8741C10.7887 15.9509 10.861 16.014 10.9472 16.0576C11.0335 16.101 11.1305 16.1234 11.2292 16.1226H14.4282C14.4726 16.1228 14.5164 16.1152 14.5575 16.0998C14.5986 16.0845 14.6357 16.0617 14.6671 16.0332C14.6984 16.0045 14.7231 15.9706 14.74 15.933C14.7569 15.8957 14.7654 15.8554 14.765 15.8149V0.324139C14.7699 0.282878 14.7652 0.241106 14.7512 0.201653C14.7371 0.162181 14.7139 0.125892 14.6833 0.0952216C14.6526 0.064571 14.6153 0.0402071 14.5734 0.0238012C14.5318 0.00737555 14.4866 -0.000699189 14.4412 4.74297e-05Z" fill="#A2A2A2"/>
<path d="M63.4374 6.21314C62.5439 5.18405 61.0932 4.66357 59.5259 4.66357C59.1622 4.66597 58.8005 4.71374 58.451 4.80553C58.0231 4.9387 57.6303 5.15228 57.2983 5.43246C57.2882 5.44065 57.2759 5.44603 57.2625 5.44794C57.2491 5.44984 57.2356 5.44821 57.2232 5.44322C57.211 5.43821 57.2004 5.43008 57.1931 5.41978C57.1857 5.40947 57.1817 5.39744 57.1817 5.38514V5.18405C57.1821 5.14357 57.1737 5.10343 57.1568 5.06598C57.1401 5.02853 57.1151 4.9945 57.0839 4.96588C57.0525 4.93725 57.0153 4.91462 56.9743 4.89927C56.9332 4.88393 56.8894 4.87619 56.845 4.8765H53.9697C53.9253 4.87619 53.8815 4.88393 53.8404 4.89927C53.7994 4.91462 53.7622 4.93725 53.7308 4.96588C53.6996 4.9945 53.6746 5.02853 53.6579 5.06598C53.641 5.10343 53.6326 5.14357 53.6329 5.18405V15.8227C53.6326 15.8632 53.641 15.9035 53.6579 15.9408C53.6746 15.9783 53.6996 16.0123 53.7308 16.041C53.7622 16.0695 53.7994 16.0923 53.8404 16.1076C53.8815 16.1229 53.9253 16.1306 53.9697 16.1304H56.832C56.8764 16.1306 56.9202 16.1229 56.9613 16.1076C57.0024 16.0923 57.0395 16.0695 57.0709 16.041C57.1022 16.0123 57.1271 15.9783 57.1438 15.9408C57.1607 15.9035 57.1692 15.8632 57.1688 15.8227C57.1688 15.8227 57.1817 9.34069 57.1817 9.28155C57.1817 8.27617 58.0883 7.67278 59.1245 7.67278C60.3808 7.67278 61.0154 8.48895 61.0803 9.38804V15.8227C61.0799 15.8632 61.0883 15.9035 61.1052 15.9408C61.1219 15.9783 61.1467 16.0123 61.1781 16.041C61.2094 16.0695 61.2467 16.0923 61.2878 16.1076C61.3286 16.1229 61.3726 16.1306 61.417 16.1304H64.2923C64.3365 16.1306 64.3805 16.1229 64.4216 16.1076C64.4624 16.0923 64.4998 16.0695 64.5312 16.041C64.5625 16.0123 64.5872 15.9783 64.6041 15.9408C64.6208 15.9035 64.6293 15.8632 64.6291 15.8227V10.3105C64.6536 8.4251 64.2793 7.18787 63.4374 6.21314Z" fill="#A2A2A2"/>
<path d="M51.3279 4.86093H48.4527C48.4067 4.86077 48.3611 4.86893 48.3187 4.88492C48.276 4.90091 48.2375 4.92443 48.2049 4.95412C48.1725 4.98381 48.1468 5.01908 48.1293 5.0579C48.1118 5.09671 48.1027 5.13832 48.1029 5.18031V5.36956C48.1035 5.38209 48.0998 5.39449 48.0927 5.40516C48.0855 5.41581 48.0749 5.42422 48.0623 5.42933C48.0497 5.43441 48.0357 5.43595 48.0222 5.43375C48.0086 5.43153 47.9962 5.42565 47.9864 5.41687C47.2115 4.90993 46.2843 4.63321 45.3312 4.62435C43.7698 4.61217 42.2612 5.14046 41.1091 6.10293C39.7102 7.25025 38.9979 8.71716 38.9979 10.4796C38.9979 12.0054 39.5418 13.3303 40.6299 14.4304C41.8862 15.7079 43.4662 16.3584 45.3312 16.3584C46.2507 16.3584 47.1445 16.0863 47.9864 15.625C47.997 15.6187 48.0096 15.6151 48.0226 15.6151C48.0354 15.6149 48.0479 15.6183 48.0589 15.6244C48.0697 15.6307 48.0784 15.6395 48.0839 15.6501C48.0896 15.6607 48.0915 15.6725 48.09 15.6841V15.8191C48.0898 15.8609 48.0988 15.9026 48.1163 15.9415C48.1338 15.9802 48.1595 16.0156 48.1919 16.0452C48.2246 16.0749 48.2631 16.0985 48.3057 16.1144C48.3482 16.1305 48.3937 16.1385 48.4397 16.1384H51.3136C51.3596 16.1385 51.4052 16.1305 51.4478 16.1144C51.4902 16.0985 51.5287 16.0749 51.5614 16.0452C51.5938 16.0156 51.6195 15.9802 51.637 15.9415C51.6547 15.9026 51.6635 15.8609 51.6633 15.8191V5.18502C51.6669 5.14317 51.6606 5.10111 51.6453 5.06156C51.6299 5.022 51.6056 4.98581 51.5741 4.9553C51.5425 4.92479 51.5042 4.90064 51.4619 4.88439C51.4195 4.86814 51.3739 4.86015 51.3279 4.86093ZM45.3961 13.3421C45.0322 13.3501 44.6705 13.289 44.3339 13.1629C43.9973 13.0365 43.693 12.8479 43.4403 12.6088C42.8833 12.1001 42.6114 11.3904 42.6114 10.4796C42.6114 9.69877 42.8187 9.072 43.2201 8.58689C43.4633 8.28628 43.782 8.04343 44.1494 7.87879C44.5168 7.71394 44.9222 7.6324 45.3312 7.64065C46.1602 7.64065 46.8078 7.87721 47.3129 8.36232C47.8568 8.88259 48.1289 9.59247 48.1289 10.4678C48.1289 11.2484 47.9216 11.8871 47.5202 12.384C47.015 13.0346 46.3156 13.3421 45.3961 13.3421Z" fill="#A2A2A2"/>
<path d="M28.844 4.86093H25.9688C25.9228 4.86077 25.8772 4.86893 25.8348 4.88492C25.7923 4.90091 25.7536 4.92443 25.7212 4.95412C25.6886 4.98381 25.6629 5.01908 25.6454 5.0579C25.6279 5.09671 25.6191 5.13832 25.6191 5.18031V5.36956C25.6196 5.38209 25.6161 5.39449 25.6088 5.40516C25.6016 5.41581 25.5909 5.42422 25.5784 5.42933C25.5658 5.43441 25.5518 5.43597 25.5383 5.43375C25.5249 5.43153 25.5124 5.42565 25.5025 5.41687C24.7276 4.90993 23.8006 4.63321 22.8475 4.62435C21.2859 4.61217 19.7774 5.14046 18.6252 6.10293C17.2265 7.25025 16.514 8.71716 16.514 10.4796C16.514 12.0054 17.0581 13.3303 18.146 14.4304C19.4023 15.7079 20.9823 16.3584 22.8475 16.3584C23.767 16.3584 24.6606 16.0863 25.5025 15.625C25.5133 15.6187 25.5259 15.6151 25.5387 15.6151C25.5515 15.6149 25.5642 15.6183 25.575 15.6244C25.5859 15.6307 25.5947 15.6395 25.6002 15.6501C25.6057 15.6607 25.6078 15.6725 25.6061 15.6841V15.8191C25.6061 15.8609 25.6149 15.9026 25.6324 15.9415C25.6499 15.9802 25.6756 16.0156 25.7082 16.0452C25.7407 16.0749 25.7794 16.0985 25.8218 16.1144C25.8643 16.1305 25.9098 16.1385 25.9558 16.1384H28.8311C28.8771 16.1385 28.9226 16.1305 28.9653 16.1144C29.0077 16.0985 29.0462 16.0749 29.0788 16.0452C29.1113 16.0156 29.137 15.9802 29.1545 15.9415C29.1722 15.9026 29.181 15.8609 29.1808 15.8191V5.18502C29.1844 5.14308 29.1781 5.10091 29.1625 5.06126C29.1472 5.02163 29.1229 4.98538 29.091 4.95485C29.0594 4.92434 29.0211 4.90021 28.9784 4.88402C28.936 4.86785 28.8902 4.85999 28.844 4.86093ZM22.9122 13.3421C22.5485 13.3501 22.1868 13.289 21.85 13.1629C21.5134 13.0365 21.2091 12.8479 20.9564 12.6088C20.3996 12.1001 20.1277 11.3904 20.1277 10.4796C20.1277 9.69877 20.3348 9.072 20.7364 8.58689C20.9794 8.28628 21.2981 8.04343 21.6655 7.87879C22.0329 7.71394 22.4383 7.6324 22.8475 7.64065C23.6763 7.64065 24.3239 7.87721 24.829 8.36232C25.3731 8.88259 25.645 9.59247 25.645 10.4678C25.645 11.2484 25.4379 11.8871 25.0363 12.384C24.5312 13.0346 23.8319 13.3421 22.9122 13.3421Z" fill="#A2A2A2"/>
<path d="M83.979 4.86093H81.1026C81.0574 4.86077 81.0102 4.86893 80.969 4.88492C80.9257 4.90091 80.8884 4.92443 80.855 4.95412C80.8216 4.98381 80.7961 5.01908 80.7784 5.0579C80.7627 5.09671 80.7528 5.13832 80.7528 5.18031V5.36956C80.7528 5.38209 80.7509 5.39449 80.743 5.40516C80.7352 5.41581 80.7253 5.42422 80.7116 5.42933C80.6998 5.43441 80.686 5.43595 80.6723 5.43375C80.6585 5.43153 80.6468 5.42565 80.6369 5.41687C79.8608 4.90993 78.9354 4.63321 77.9813 4.62435C76.4199 4.61217 74.9113 5.14046 73.759 6.10293C72.3603 7.25025 71.6478 8.71716 71.6478 10.4796C71.6478 12.0054 72.1919 13.3303 73.2798 14.4304C74.5361 15.7079 76.1163 16.3584 77.9813 16.3584C78.9001 16.3584 79.794 16.0863 80.6369 15.625C80.6468 15.6187 80.6605 15.6151 80.6723 15.6151C80.686 15.6149 80.6978 15.6183 80.7096 15.6244C80.7194 15.6307 80.7293 15.6395 80.7332 15.6501C80.7391 15.6607 80.741 15.6725 80.7391 15.6841V15.8191C80.7391 15.8609 80.7489 15.9026 80.7666 15.9415C80.7843 15.9802 80.8098 16.0156 80.8413 16.0452C80.8747 16.0749 80.914 16.0985 80.9552 16.1144C80.9984 16.1305 81.0436 16.1385 81.0888 16.1384H83.9653C84.0105 16.1385 84.0557 16.1305 84.0989 16.1144C84.1421 16.0985 84.1794 16.0749 84.2128 16.0452C84.2443 16.0156 84.2718 15.9802 84.2875 15.9415C84.3052 15.9026 84.315 15.8609 84.315 15.8191V5.18502C84.317 5.10146 84.2836 5.02041 84.2207 4.95966C84.1578 4.89891 84.0714 4.86339 83.979 4.86093ZM78.0473 13.3421C77.6837 13.3501 77.3219 13.289 76.9852 13.1629C76.6486 13.0365 76.3443 12.8479 76.0916 12.6088C75.5348 12.1001 75.2628 11.3904 75.2628 10.4796C75.2628 9.69877 75.4699 9.072 75.8715 8.58689C76.1146 8.28628 76.4333 8.04343 76.8007 7.87879C77.1681 7.71394 77.5734 7.6324 77.9827 7.64065C78.8116 7.64065 79.46 7.87721 79.965 8.36232C80.5072 8.88259 80.7804 9.59247 80.7804 10.4678C80.7804 11.2484 80.5721 11.8871 80.1713 12.384C79.6526 13.0346 78.9531 13.3421 78.0473 13.3421Z" fill="#A2A2A2"/>
<path d="M37.1195 4.91149C36.4613 4.93564 35.8259 5.13732 35.2933 5.49108C35.283 5.4988 35.2707 5.50376 35.2575 5.50541C35.2445 5.50706 35.231 5.50533 35.219 5.5004C35.2068 5.49548 35.1964 5.48759 35.1889 5.47758C35.1815 5.46756 35.1773 5.45587 35.1767 5.44377V5.18353C35.1771 5.14306 35.1685 5.10294 35.1518 5.06547C35.1349 5.02802 35.1101 4.99399 35.0789 4.96536C35.0475 4.93676 35.0103 4.9141 34.9693 4.89876C34.9282 4.88341 34.8844 4.87567 34.84 4.87599H31.9647C31.9203 4.87567 31.8765 4.88341 31.8354 4.89876C31.7944 4.9141 31.7572 4.93676 31.7258 4.96536C31.6945 4.99399 31.6696 5.02802 31.6529 5.06547C31.636 5.10294 31.6275 5.14306 31.6279 5.18353V15.8222C31.6275 15.8627 31.636 15.903 31.6529 15.9403C31.6696 15.9778 31.6945 16.0118 31.7258 16.0405C31.7572 16.069 31.7944 16.0918 31.8354 16.1071C31.8765 16.1224 31.9203 16.1301 31.9647 16.1299H34.84C34.8844 16.1301 34.9282 16.1224 34.9693 16.1071C35.0103 16.0918 35.0475 16.069 35.0789 16.0405C35.1101 16.0118 35.1349 15.9778 35.1518 15.9403C35.1685 15.903 35.1771 15.8627 35.1767 15.8222V10.7004C35.1767 9.60034 35.3192 8.8433 35.6171 8.4529C35.8762 8.09806 36.3941 7.92064 37.1454 7.92064C37.4871 7.91887 37.8288 7.93459 38.1685 7.96799C38.2145 7.96819 38.2601 7.95993 38.3025 7.94402C38.3452 7.9281 38.3837 7.90453 38.4163 7.87486C38.4487 7.84519 38.4744 7.80983 38.4919 7.77112C38.5094 7.73222 38.5184 7.69056 38.5182 7.64871V5.29474C38.5188 5.21896 38.4888 5.14565 38.4338 5.08891C38.3787 5.03215 38.3027 4.99592 38.2204 4.98719C37.8553 4.94202 37.4877 4.91676 37.1195 4.91149Z" fill="#A2A2A2"/>
<path d="M70.0684 0.583816C69.8719 0.402584 69.6379 0.259018 69.3799 0.161506C69.1219 0.0640133 68.8451 0.0145589 68.5659 0.0160325C67.9922 0.00933253 67.4387 0.209015 67.0247 0.571969C66.8192 0.747032 66.6563 0.95974 66.5471 1.19618C66.4376 1.43262 66.3842 1.6875 66.3901 1.94412C66.3921 2.46321 66.6198 2.96034 67.0229 3.3263C67.4259 3.69225 67.9717 3.89709 68.5402 3.89584C68.8233 3.89863 69.1044 3.84984 69.3667 3.75237C69.6292 3.65488 69.8677 3.51064 70.0684 3.32807C70.2688 3.15002 70.4273 2.93651 70.5342 2.70056C70.6411 2.46463 70.6941 2.21125 70.69 1.95593C70.6977 1.70019 70.6462 1.44583 70.5391 1.20942C70.432 0.973022 70.2717 0.759861 70.0684 0.583816Z" fill="#A2A2A2"/>
<path d="M69.9784 4.86024H67.1032C67.0589 4.85992 67.0149 4.86765 66.9739 4.88299C66.9328 4.89834 66.8957 4.92099 66.8642 4.94962C66.833 4.97822 66.8082 5.01226 66.7913 5.0497C66.7746 5.08717 66.766 5.12731 66.7664 5.16779V16.3341C66.7534 16.7955 66.5334 18.3213 64.202 18.4751C64.1155 18.4822 64.0351 18.5194 63.9774 18.5787C63.9196 18.6378 63.8888 18.715 63.8911 18.7944V21.3139V21.3259V21.3376C63.8929 21.4188 63.9288 21.496 63.9915 21.5534C64.0544 21.6107 64.1391 21.6438 64.2279 21.6451H64.2538C64.8366 21.6216 70.0433 21.2549 70.3152 16.6654C70.3268 16.6391 70.3313 16.6108 70.3281 16.5825V5.17965C70.3266 5.09542 70.289 5.01506 70.2238 4.95549C70.1586 4.89592 70.0708 4.86175 69.9784 4.86024Z" fill="#A2A2A2"/>
<path d="M90.9088 0.272065C90.8479 0.190075 90.7674 0.122546 90.6731 0.0751746C90.5787 0.0278233 90.4727 0.00202567 90.3646 1.94454e-06H87.0362C86.9753 -0.000194534 86.9164 0.0145017 86.8633 0.0425392C86.8123 0.0705767 86.769 0.110934 86.7396 0.159346C86.7101 0.207758 86.6963 0.262438 86.6983 0.317668C86.7003 0.372879 86.718 0.426596 86.7514 0.473142L92.074 7.9843C92.0877 8.00611 92.0936 8.03067 92.0936 8.05543C92.0936 8.08018 92.0877 8.10455 92.074 8.12636L86.7514 15.6375C86.718 15.6841 86.7003 15.7377 86.6983 15.793C86.6963 15.8484 86.7101 15.903 86.7396 15.9513C86.769 15.9998 86.8123 16.0401 86.8633 16.0682C86.9164 16.0961 86.9753 16.1109 87.0362 16.1107H90.3784C90.4825 16.1109 90.5866 16.0871 90.679 16.0417C90.7713 15.9963 90.8499 15.9305 90.9088 15.8505L96.1018 8.4812C96.1902 8.35388 96.2373 8.20613 96.2373 8.05543C96.2373 7.90453 96.1902 7.75678 96.1018 7.62946L90.9088 0.272065Z" fill="#A2A2A2"/>
<path d="M97.1628 9.15005C97.151 9.13001 97.1353 9.11312 97.1156 9.10133C97.094 9.08954 97.0704 9.08325 97.0468 9.08325C97.0213 9.08325 96.9977 9.08954 96.9781 9.10133C96.9565 9.11312 96.9407 9.13001 96.929 9.15005L95.194 11.6104C95.1056 11.7377 95.0585 11.8854 95.0585 12.0363C95.0585 12.1872 95.1056 12.3348 95.194 12.4621L97.5518 15.8097C97.6186 15.9075 97.7129 15.9881 97.8229 16.0439C97.9349 16.0999 98.0587 16.1292 98.1864 16.129H101.462C101.523 16.1292 101.582 16.1144 101.635 16.0865C101.688 16.0584 101.729 16.0182 101.758 15.9696C101.788 15.9213 101.802 15.8665 101.8 15.8113C101.798 15.7561 101.78 15.7024 101.747 15.6559L97.1628 9.15005Z" fill="white"/>
<path d="M97.5518 0.327068L95.194 3.67459C95.1056 3.80183 95.0585 3.94956 95.0585 4.10042C95.0585 4.2513 95.1056 4.39901 95.194 4.52625L96.929 6.98659C96.9427 7.0031 96.9604 7.01646 96.98 7.02549C97.0017 7.03473 97.0233 7.03944 97.0468 7.03944C97.0684 7.03944 97.0901 7.03473 97.1117 7.02549C97.1313 7.01646 97.149 7.0031 97.1628 6.98659L101.747 0.480832C101.78 0.434287 101.798 0.380569 101.8 0.325339C101.802 0.270128 101.788 0.215429 101.758 0.167017C101.729 0.118604 101.688 0.0782672 101.635 0.0502297C101.582 0.0221922 101.523 0.0074959 101.462 0.00769237H98.1727C98.0489 0.00904808 97.9251 0.0390301 97.817 0.09483C97.709 0.15065 97.6166 0.230499 97.5518 0.327068Z" fill="white"/>
</svg>
