<svg width="87" height="22" viewBox="0 0 87 22" fill="none" xmlns="http://www.w3.org/2000/svg">
<path d="M15.7395 0.00769043C7.04967 0.00769043 0 4.62594 0 10.3089C0 10.4527 0 10.8555 0 10.9131C0 16.9269 6.15766 21.8041 15.7395 21.8041C25.3212 21.8041 31.479 16.9269 31.479 10.9131V10.3089C31.479 4.62594 24.4292 0.00769043 15.7395 0.00769043ZM30.7595 9.15793C27.3355 9.92047 24.7889 11.0282 24.1415 11.3015C22.6453 9.99238 19.1924 6.99981 18.2572 6.29485C17.7249 5.89201 17.3652 5.6762 17.0343 5.58988C16.8904 5.54672 16.689 5.50355 16.4301 5.50355C16.1855 5.50355 15.9409 5.54672 15.6675 5.63303C15.0633 5.82006 14.459 6.30923 13.8835 6.76962V6.784C13.3368 7.21555 12.7757 7.66155 12.3585 7.76235C12.1715 7.80557 11.9844 7.81992 11.7974 7.81992C11.3226 7.81992 10.891 7.67609 10.7328 7.4745C10.704 7.44582 10.7184 7.38825 10.7903 7.302L10.8047 7.28746L12.1139 5.87763C13.1498 4.84175 14.1137 3.87781 16.3581 3.82026C16.4013 3.82026 16.4301 3.82026 16.4732 3.82026C17.8687 3.82026 19.2643 4.43891 19.4082 4.51084C20.7173 5.14388 22.0553 5.47479 23.4222 5.47479C24.8321 5.47479 26.2851 5.12949 27.8102 4.42453C29.3785 5.77691 30.443 7.40259 30.7595 9.15793ZM15.7395 0.611941C20.3577 0.611941 24.4867 1.93556 27.2636 4.02169C25.9255 4.59715 24.6451 4.8993 23.4079 4.8993C22.1418 4.8993 20.8757 4.59718 19.6528 3.99291C19.5952 3.96414 18.0558 3.23039 16.4444 3.23039C16.4013 3.23039 16.3581 3.23039 16.315 3.23039C14.4302 3.27356 13.38 3.93536 12.6606 4.52522C11.97 4.53961 11.3658 4.71227 10.8335 4.85613C10.3587 4.98561 9.95587 5.10071 9.55303 5.10071C9.39476 5.10071 9.09264 5.08633 9.06385 5.08633C8.60346 5.07195 6.30154 4.51084 4.45999 3.82026C7.25108 1.84922 11.2651 0.611941 15.7395 0.611941ZM3.94207 4.2231C5.85553 5.0144 8.18624 5.61865 8.93437 5.66181C9.1358 5.6762 9.3516 5.70498 9.58179 5.70498C10.071 5.70498 10.5601 5.5611 11.0349 5.43162C11.3082 5.35969 11.6248 5.27336 11.9413 5.20142C11.8549 5.28774 11.7686 5.37407 11.6823 5.46038L10.3443 6.8991C10.2436 6.99981 10.0134 7.28746 10.1573 7.63287C10.2148 7.77669 10.3443 7.90617 10.5026 8.02131C10.8191 8.23704 11.3946 8.38106 11.9125 8.38106C12.1139 8.38106 12.301 8.36652 12.4736 8.32349C13.0347 8.19401 13.6246 7.73346 14.2432 7.23009C14.7324 6.84155 15.4373 6.33799 15.984 6.19413C16.1423 6.15097 16.315 6.1222 16.4732 6.1222C16.5164 6.1222 16.5595 6.1222 16.6027 6.13658C16.9624 6.17975 17.3077 6.30923 17.9119 6.76962C19.0053 7.58964 23.8537 11.8338 23.8969 11.877C23.8969 11.877 24.2134 12.1503 24.1847 12.5963C24.1702 12.8409 24.0407 13.0569 23.7963 13.215C23.5947 13.3445 23.379 13.4164 23.1633 13.4164C22.8324 13.4164 22.6165 13.2582 22.6021 13.2582C22.5878 13.2437 20.9189 11.7188 20.3145 11.2009C20.2139 11.1145 20.1275 11.0426 20.0269 11.0426C19.9693 11.0426 19.9261 11.0714 19.8974 11.1001C19.7966 11.2153 19.9117 11.388 20.0412 11.4886L21.9834 13.4453C21.9834 13.4453 22.228 13.6754 22.2569 13.9776C22.2712 14.2941 22.1129 14.5674 21.7964 14.7833C21.5663 14.9415 21.336 15.0134 21.1059 15.0134C20.8037 15.0134 20.6024 14.8839 20.5591 14.8407L20.2858 14.5674C19.7823 14.0638 19.2499 13.5459 18.8615 13.2294C18.7608 13.1575 18.6744 13.0855 18.5737 13.0855C18.5306 13.0855 18.4874 13.0999 18.4442 13.1431C18.4011 13.1863 18.3723 13.2726 18.473 13.4308C18.5162 13.4883 18.5737 13.5459 18.5737 13.5459L19.9836 15.1429C19.998 15.1572 20.2715 15.4883 20.0123 15.8191L19.955 15.8767C19.9117 15.9197 19.8685 15.963 19.8255 16.0062C19.5808 16.2076 19.2643 16.2219 19.1348 16.2219C19.0629 16.2219 19.0053 16.2219 18.9478 16.2076C18.8039 16.1787 18.7176 16.15 18.6744 16.0924L18.66 16.0781C18.5881 15.9917 17.8687 15.2723 17.2789 14.7833C17.2069 14.7112 17.1062 14.6393 17.0055 14.6393C16.9624 14.6393 16.9192 14.6536 16.876 14.6969C16.7609 14.8263 16.9336 15.0134 17.0055 15.0853L18.214 16.4233C18.214 16.4377 18.1997 16.4665 18.1709 16.5096C18.1277 16.5671 17.9838 16.7112 17.5379 16.7687C17.4803 16.7687 17.4371 16.7831 17.3796 16.7831C16.9336 16.7831 16.4444 16.5671 16.1999 16.4377C16.315 16.1932 16.3725 15.9341 16.3725 15.6751C16.3725 14.6825 15.5668 13.8768 14.5741 13.8768C14.5597 13.8768 14.5309 13.8768 14.5166 13.8768C14.5453 13.4164 14.4878 12.5676 13.5958 12.1792C13.3368 12.064 13.0922 12.0065 12.8477 12.0065C12.6606 12.0065 12.4736 12.0354 12.301 12.1073C12.1139 11.7475 11.8118 11.4886 11.4233 11.3591C11.2075 11.2872 10.9917 11.2439 10.7759 11.2439C10.4019 11.2439 10.071 11.3591 9.76882 11.5605C9.48108 11.2009 9.04947 10.985 8.58908 10.985C8.18624 10.985 7.7978 11.1434 7.51006 11.431C7.13598 11.1434 5.63974 10.1938 1.65451 9.28741C1.46748 9.24419 1.03587 9.11471 0.762516 9.0428C1.10781 7.21555 2.24438 5.57548 3.94207 4.2231ZM11.337 14.625L11.2939 14.5817H11.2507C11.2219 14.5817 11.1788 14.5963 11.1356 14.625C10.9342 14.7688 10.7328 14.8407 10.5457 14.8407C10.4306 14.8407 10.3299 14.812 10.2148 14.7833C9.29405 14.4236 9.366 13.5459 9.40914 13.2869C9.40914 13.2294 9.40914 13.1863 9.36598 13.1575L9.29405 13.0999L9.2365 13.1575C9.04947 13.3302 8.81928 13.4308 8.5747 13.4308C8.04238 13.4308 7.61076 12.9993 7.61076 12.4668C7.61076 11.9346 8.04238 11.5029 8.5747 11.5029C9.04947 11.5029 9.46669 11.8627 9.52424 12.3374L9.55303 12.5963L9.69689 12.3806C9.71127 12.3519 10.0997 11.7619 10.8191 11.7619C10.9486 11.7619 11.0924 11.7907 11.2363 11.8338C11.8118 12.0065 11.8981 12.5244 11.9125 12.7403C11.9269 12.8698 12.0132 12.8698 12.0276 12.8698C12.0708 12.8698 12.1139 12.8409 12.1427 12.8122C12.2434 12.6971 12.488 12.5101 12.8477 12.5101C13.0203 12.5101 13.1929 12.5533 13.38 12.6252C14.2864 13.0136 13.8691 14.1646 13.8691 14.1789C13.7972 14.366 13.7828 14.4522 13.8547 14.4955L13.8835 14.5098H13.9123C13.9555 14.5098 13.9986 14.4955 14.0849 14.4668C14.2144 14.4236 14.3871 14.366 14.5741 14.366C15.2503 14.3803 15.8114 14.9271 15.8114 15.6032C15.8114 16.2795 15.2503 16.8406 14.5741 16.8406C13.9123 16.8406 13.3656 16.3227 13.3368 15.6608C13.3368 15.6032 13.3224 15.4594 13.2073 15.4594C13.1498 15.4594 13.1066 15.4883 13.0635 15.5313C12.9196 15.6608 12.7326 15.8046 12.4592 15.8046C12.3297 15.8046 12.2002 15.7759 12.0564 15.7184C11.3514 15.4307 11.337 14.9558 11.3658 14.7544C11.3658 14.7112 11.3802 14.6682 11.337 14.625ZM15.7395 19.977C7.38056 19.977 0.604258 15.6464 0.604258 10.2944C0.604258 10.0786 0.618644 9.8629 0.647419 9.64697C0.719353 9.66151 1.38116 9.81967 1.51064 9.84836C5.58219 10.7549 6.93457 11.69 7.16477 11.877C7.09284 12.064 7.04967 12.2654 7.04967 12.4668C7.04967 13.3158 7.74026 13.9919 8.5747 13.9919C8.67542 13.9919 8.76173 13.9776 8.86244 13.9632C8.99192 14.5817 9.39476 15.0566 10.0134 15.3012C10.2004 15.3731 10.3731 15.4018 10.5601 15.4018C10.6752 15.4018 10.7903 15.3875 10.9054 15.3588C11.0205 15.6464 11.2795 16.0062 11.8549 16.2506C12.0564 16.3371 12.2578 16.3801 12.4592 16.3801C12.6175 16.3801 12.7757 16.3514 12.9196 16.2938C13.1929 16.9701 13.8547 17.4161 14.5885 17.4161C15.0777 17.4161 15.538 17.2145 15.8833 16.8693C16.1711 17.0277 16.7897 17.3297 17.4084 17.3297C17.4947 17.3297 17.5666 17.3297 17.6386 17.3153C18.2572 17.2434 18.5449 16.9988 18.6744 16.8118C18.7032 16.7831 18.7176 16.7398 18.732 16.7112C18.8758 16.7542 19.0341 16.7831 19.2211 16.7831C19.552 16.7831 19.8828 16.6679 20.2139 16.4377C20.5304 16.2076 20.7605 15.8767 20.7894 15.5889V15.5745C20.9043 15.6032 21.0051 15.6032 21.1203 15.6032C21.4655 15.6032 21.8109 15.5026 22.1274 15.2867C22.7603 14.8696 22.8611 14.3373 22.8611 13.9919C22.9762 14.0208 23.0768 14.0208 23.1919 14.0208C23.5228 14.0208 23.8393 13.92 24.1415 13.7329C24.53 13.4883 24.7602 13.0999 24.8033 12.6539C24.8321 12.3519 24.7457 12.0497 24.5875 11.7907C25.6377 11.3447 28.0404 10.4671 30.8603 9.81967C30.8746 9.97784 30.8746 10.1362 30.8746 10.3089C30.8746 15.6464 24.0983 19.977 15.7395 19.977Z" fill="#303030"/>
<path d="M85.4436 3.17312C84.8682 2.45375 84.005 2.09408 82.8397 2.09408C81.6744 2.09408 80.8111 2.45375 80.2356 3.17312C79.6601 3.89246 79.3725 4.74131 79.3725 5.70524C79.3725 6.68356 79.6601 7.54679 80.2356 8.25175C80.8111 8.95672 81.6744 9.31647 82.8397 9.31647C84.005 9.31647 84.8682 8.95672 85.4436 8.25175C86.0191 7.54679 86.307 6.69794 86.307 5.70524C86.307 4.71253 86.0191 3.89246 85.4436 3.17312ZM84.0337 7.28783C83.7604 7.66193 83.3576 7.83443 82.8397 7.83443C82.3218 7.83443 81.9188 7.64758 81.6455 7.28783C81.3722 6.91376 81.2284 6.39582 81.2284 5.71962C81.2284 5.04344 81.3722 4.5255 81.6455 4.15144C81.9188 3.79175 82.3218 3.60472 82.8397 3.60472C83.3576 3.60472 83.7604 3.79175 84.0337 4.15144C84.3072 4.51112 84.451 5.04344 84.451 5.71962C84.451 6.39582 84.3072 6.91376 84.0337 7.28783ZM70.8408 2.56887C70.2653 2.28112 69.6035 2.12286 68.8554 2.12286C67.7044 2.12286 66.8988 2.42499 66.4239 3.01485C66.1219 3.40331 65.9636 3.89246 65.9205 4.48233H67.6325C67.6757 4.22337 67.7619 4.00756 67.8914 3.8637C68.0641 3.66227 68.3663 3.54717 68.798 3.54717C69.1719 3.54717 69.4597 3.60472 69.6611 3.70544C69.8625 3.80615 69.949 4.00756 69.949 4.28092C69.949 4.51112 69.8193 4.68376 69.5603 4.78446C69.4165 4.84201 69.1864 4.89956 68.8554 4.94272L68.2512 5.01465C67.5606 5.10098 67.0426 5.24485 66.6831 5.44628C66.0355 5.82033 65.7046 6.42458 65.7046 7.25895C65.7046 7.90654 65.906 8.39558 66.309 8.75533C66.7118 9.10054 67.2297 9.2589 67.8484 9.28759C71.7328 9.46029 71.6898 7.24461 71.7184 6.78428V4.23776C71.7041 3.43208 71.4163 2.87099 70.8408 2.56887ZM69.9344 6.43898C69.9201 7.02887 69.7474 7.446 69.4308 7.66193C69.1 7.892 68.7404 7.9928 68.352 7.9928C68.1074 7.9928 67.8914 7.92089 67.7333 7.79141C67.5606 7.66193 67.4743 7.43165 67.4743 7.12947C67.4743 6.78428 67.6181 6.5397 67.8914 6.38144C68.0641 6.28072 68.3231 6.20879 68.7115 6.13686L69.1143 6.06491C69.3159 6.02176 69.4741 5.9786 69.5892 5.93543C69.7043 5.89226 69.8193 5.83471 69.9344 5.76278V6.43898ZM61.9928 3.64789C62.4388 3.64789 62.7553 3.79175 62.9712 4.06511C63.115 4.26654 63.2013 4.49672 63.2445 4.75569H65.158C65.0572 3.79175 64.712 3.11557 64.1509 2.74149C63.5754 2.36744 62.8417 2.16601 61.9497 2.16601C60.8993 2.16601 60.0649 2.48253 59.4751 3.12995C58.8709 3.77737 58.5831 4.68376 58.5831 5.84912C58.5831 6.87059 58.8564 7.7195 59.4032 8.36689C59.9498 9.01429 60.7842 9.33082 61.9352 9.33082C63.0862 9.33082 63.9495 8.94238 64.5393 8.1655C64.9134 7.69061 65.1148 7.17269 65.158 6.64039H63.2302C63.1869 6.99999 63.0861 7.28783 62.8991 7.5181C62.7122 7.73384 62.4101 7.84897 61.9641 7.84897C61.3454 7.84897 60.9282 7.56113 60.698 6.99999C60.5685 6.69794 60.5109 6.2951 60.5109 5.80595C60.5109 5.3168 60.5685 4.87079 60.698 4.55426C60.9282 3.95001 61.3597 3.64789 61.9928 3.64789ZM58.0508 2.15162C54.123 2.15162 54.3533 5.6333 54.3533 5.6333V9.17245H56.1373V5.8635C56.1373 5.3168 56.2092 4.91396 56.3387 4.65498C56.5833 4.19459 57.058 3.96439 57.7773 3.96439C57.8349 3.96439 57.9068 3.96439 57.9932 3.9788C58.0795 3.9788 58.1803 3.99318 58.2954 4.00756V2.19479C58.2233 2.19479 58.1659 2.18041 58.1371 2.18041C58.1084 2.15162 58.0795 2.15162 58.0508 2.15162ZM52.929 3.47524C52.6268 3.01485 52.224 2.68394 51.7637 2.46815C51.2888 2.25234 50.7565 2.15162 50.1667 2.15162C49.1739 2.15162 48.3683 2.46815 47.7496 3.08679C47.1309 3.71982 46.8144 4.61181 46.8144 5.79157C46.8144 7.04321 47.1598 7.94957 47.8502 8.51071C48.5408 9.07186 49.3323 9.34516 50.2386 9.34516C51.332 9.34516 52.1808 9.01429 52.785 8.35255C53.116 8.00714 53.3174 7.66193 53.4037 7.33106H51.5047C51.4326 7.43165 51.3464 7.53245 51.2601 7.60436C51.0011 7.80575 50.6701 7.87766 50.2673 7.87766C49.8932 7.87766 49.5912 7.82009 49.3177 7.64758C48.8717 7.37408 48.6273 6.91375 48.5984 6.23755H53.5332C53.5332 5.64769 53.5188 5.20168 53.4756 4.88517C53.3893 4.33847 53.2023 3.87808 52.929 3.47524ZM48.6273 5.04344C48.6847 4.59743 48.843 4.25214 49.102 3.99318C49.3466 3.7342 49.7062 3.60472 50.1667 3.60472C50.5838 3.60472 50.9292 3.71982 51.2169 3.96439C51.5047 4.20897 51.6485 4.56867 51.6916 5.02905H48.6273V5.04344ZM43.2609 2.12286C42.4264 2.12286 41.7215 2.48253 41.2322 3.0724C40.7719 2.49692 40.0669 2.12286 39.2036 2.12286C37.4628 2.12286 36.3407 3.40331 36.3407 5.10099V9.15811H37.9664V5.05782C37.9664 4.30969 38.4699 3.79175 39.2036 3.79175C40.2826 3.79175 40.3834 4.68376 40.3834 5.05782V9.15811H42.0091V5.05782C42.0091 4.30969 42.527 3.79175 43.2465 3.79175C44.3254 3.79175 44.4405 4.68376 44.4405 5.05782V9.15811H46.0664V5.10099C46.0951 3.36015 45.0449 2.12286 43.2609 2.12286ZM77.056 1.25963V3.17312C76.8546 2.85659 76.5956 2.59763 76.2791 2.42499C75.9626 2.25234 75.603 2.15162 75.1857 2.15162C74.2937 2.15162 73.5887 2.48254 73.0565 3.14433C72.5242 3.80615 72.2507 4.77008 72.2507 5.92105C72.2507 6.92814 72.5242 7.74818 73.0565 8.38123C73.6033 9.01429 74.6534 9.30193 75.603 9.30193C78.8832 9.30193 78.8545 6.48213 78.8545 6.48213V0.00796555C78.8545 0.00796555 77.056 -0.179083 77.056 1.25963ZM76.7108 7.30217C76.4518 7.67627 76.0634 7.86332 75.5741 7.86332C75.0851 7.86332 74.6967 7.67627 74.452 7.30217C74.2074 6.92814 74.078 6.38144 74.078 5.7484C74.078 5.17292 74.1931 4.68376 74.4377 4.2953C74.6821 3.90685 75.0562 3.70544 75.5741 3.70544C75.9195 3.70544 76.2072 3.80615 76.4661 4.02194C76.8835 4.38162 77.0992 5.01465 77.0992 5.84912C77.1135 6.43898 76.9697 6.92814 76.7108 7.30217ZM40.1101 11.8917C38.6426 11.8198 37.8945 12.1794 37.4198 12.5391C36.7578 13.0427 36.3407 13.8052 36.3407 15.0138V21.2144H37.2038C37.4341 21.2144 37.6642 21.1282 37.8369 20.9844C38.0239 20.8116 38.1247 20.5959 38.1247 20.337V18.0061C38.3405 18.3659 38.6138 18.6392 38.9592 18.8119C39.29 18.9701 39.6785 19.042 40.1101 19.042C40.93 19.042 41.6063 18.7111 42.1242 18.0637C42.6422 17.3876 42.9155 16.5099 42.9155 15.4309C42.9155 14.3375 42.671 13.575 42.0667 12.8413C41.6063 12.2513 40.8725 11.9204 40.1101 11.8917ZM40.7287 16.9703C40.4697 17.33 40.1101 17.5171 39.6496 17.5171C39.1606 17.5171 38.7865 17.3444 38.5275 16.9703C38.2685 16.6394 38.1391 16.1502 38.1391 15.5028C38.1391 14.7978 38.2542 14.2799 38.4986 13.949C38.7576 13.5893 39.1317 13.4022 39.6066 13.4022C40.0813 13.4022 40.4697 13.5893 40.7287 13.949C40.9876 14.3088 41.1171 14.8267 41.1171 15.5028C41.1171 16.1215 40.9876 16.6105 40.7287 16.9703ZM55.4323 12.5248C54.828 12.0644 54.2094 11.8198 53.1447 11.8485C52.0657 11.8774 51.2744 12.1794 50.7852 12.8413C50.2962 13.503 50.0516 14.3662 50.0516 15.4309C50.0516 16.3372 50.2386 17.0854 50.5982 17.6466C50.9723 18.2075 51.4039 18.5962 51.9218 18.7975C52.4398 18.9989 52.9577 19.042 53.4756 18.927C53.9935 18.8119 54.4108 18.5097 54.7274 18.0207V18.4521C54.6985 18.9989 54.5547 19.4161 54.3246 19.6896C54.0943 19.9629 53.8353 20.1356 53.5475 20.1929C53.2599 20.2505 52.9866 20.2218 52.6987 20.0923C52.4111 19.9629 52.2095 19.7758 52.0657 19.5312H50.181C50.6701 20.9987 51.5477 21.6461 53.116 21.7469C55.6481 21.9339 56.4682 19.7758 56.4682 18.6248V14.9849C56.4969 13.8052 56.0941 13.0283 55.4323 12.5248ZM54.6841 16.1072C54.6122 16.5099 54.5114 16.8121 54.3533 16.9992C54.0224 17.4452 53.5188 17.6033 52.8425 17.4739C52.1521 17.3444 51.8067 16.6827 51.8067 15.5028C51.8067 14.9562 51.9075 14.467 52.1089 14.0353C52.3103 13.6038 52.7131 13.3879 53.2885 13.3879C53.7202 13.3879 54.0511 13.5463 54.267 13.8483C54.4971 14.1648 54.6266 14.5102 54.6985 14.913C54.756 15.3014 54.756 15.7042 54.6841 16.1072ZM48.5265 12.3521C47.951 12.0644 47.2893 11.9061 46.5411 11.9061C45.3901 11.9061 44.5844 12.2082 44.1097 12.7981C43.8075 13.1865 43.6493 13.6757 43.6061 14.2656H45.3182C45.3614 14.0066 45.4477 13.7907 45.5772 13.6469C45.7499 13.4455 46.0519 13.3303 46.4835 13.3303C46.8576 13.3303 47.1453 13.3879 47.3468 13.4887C47.5482 13.5893 47.6345 13.7907 47.6345 14.0642C47.6345 14.2943 47.505 14.467 47.246 14.5678C47.1022 14.6253 46.8719 14.6827 46.5411 14.7259L45.9369 14.7978C45.2463 14.8843 44.7138 15.0281 44.3686 15.2295C43.7212 15.6036 43.3903 16.2078 43.3903 17.0422C43.3903 17.6896 43.5917 18.1788 43.9945 18.5386C44.3975 18.8838 44.9154 19.042 45.5339 19.0708C49.4042 19.2436 49.3609 17.0279 49.4042 16.5675V14.021C49.4042 13.2009 49.1163 12.6399 48.5265 12.3521ZM47.6201 16.2221C47.6058 16.8121 47.4331 17.2293 47.1166 17.4452C46.7857 17.6753 46.4259 17.7761 46.0375 17.7761C45.7929 17.7761 45.5915 17.7041 45.4188 17.5747C45.2463 17.4452 45.1598 17.2149 45.1598 16.9127C45.1598 16.5675 45.3039 16.3229 45.5772 16.1647C45.7499 16.0639 46.0088 15.992 46.3973 15.9201L46.8 15.8482C47.0014 15.805 47.1598 15.7761 47.2747 15.7187C47.3899 15.6755 47.505 15.6179 47.6201 15.546V16.2221ZM63.2302 12.9132C62.6547 12.1939 61.7914 11.8341 60.626 11.8341C59.4607 11.8341 58.5974 12.1939 58.0219 12.9132C57.4464 13.6325 57.1588 14.4813 57.1588 15.4452C57.1588 16.4092 57.4464 17.2868 58.0219 17.9918C58.5974 18.6968 59.4607 19.042 60.626 19.042C61.7914 19.042 62.6547 18.6824 63.2302 17.9918C63.8057 17.2868 64.0933 16.438 64.0933 15.4452C64.0933 14.4526 63.8057 13.6325 63.2302 12.9132ZM61.8202 17.0135C61.5467 17.3876 61.144 17.5601 60.626 17.5601C60.1081 17.5601 59.7053 17.3731 59.4318 17.0135C59.1442 16.6394 59.0147 16.1215 59.0147 15.4452C59.0147 14.7691 59.1585 14.2512 59.4318 13.8771C59.7053 13.5174 60.1081 13.3303 60.626 13.3303C61.144 13.3303 61.5467 13.5174 61.8202 13.8771C62.0935 14.2367 62.2374 14.7691 62.2374 15.4452C62.2374 16.1359 62.0935 16.6538 61.8202 17.0135Z" fill="#979797"/>
</svg>
