<svg width="91" height="19" viewBox="0 0 91 19" fill="none" xmlns="http://www.w3.org/2000/svg">
<mask id="mask0_2004_1800" style="mask-type:luminance" maskUnits="userSpaceOnUse" x="0" y="0" width="13" height="19">
<path d="M0 0H12.8242V18.631H0V0Z" fill="white"/>
</mask>
<g mask="url(#mask0_2004_1800)">
<path fill-rule="evenodd" clip-rule="evenodd" d="M6.40716 14.977C4.80193 14.977 3.49731 13.614 3.49731 11.9382C3.49731 10.2625 4.80193 8.89929 6.40716 8.89929C8.01239 8.89929 9.31896 10.2625 9.31896 11.9382C9.31896 13.614 8.01239 14.977 6.40716 14.977ZM6.41307 5.24404C5.45229 5.24404 4.52687 5.46111 3.66433 5.88865L3.50321 5.96901V1.82936C3.50321 0.821445 2.71728 0.00195312 1.75258 0.00195312C0.7859 0.00195312 0.00195312 0.821445 0.00195312 1.82936V11.9447C0.00391791 15.6328 2.88038 18.6324 6.41307 18.6324C9.94968 18.6324 12.8261 15.6297 12.8261 11.9382C12.8261 8.24718 9.94968 5.24404 6.41307 5.24404Z" fill="#8A8A8A"/>
</g>
<mask id="mask1_2004_1800" style="mask-type:luminance" maskUnits="userSpaceOnUse" x="37" y="0" width="14" height="19">
<path d="M37.1915 0H50.0157V18.631H37.1915V0Z" fill="white"/>
</mask>
<g mask="url(#mask1_2004_1800)">
<path fill-rule="evenodd" clip-rule="evenodd" d="M43.5967 14.977C41.9935 14.977 40.6869 13.614 40.6869 11.9382C40.6869 10.2625 41.9935 8.89929 43.5967 8.89929C45.202 8.89929 46.5086 10.2625 46.5086 11.9382C46.5086 13.614 45.202 14.977 43.5967 14.977ZM43.6026 5.24404C42.6418 5.24404 41.7164 5.46111 40.8559 5.88865L40.6928 5.96901V1.82936C40.6928 0.821445 39.9069 0.00195312 38.9422 0.00195312C37.9775 0.00195312 37.1915 0.821445 37.1915 1.82936V11.9447C37.1935 15.6328 40.0699 18.6324 43.6026 18.6324C47.1392 18.6324 50.0157 15.6297 50.0157 11.9382C50.0157 8.24718 47.1393 5.24404 43.6046 5.24404" fill="#8A8A8A"/>
</g>
<path fill-rule="evenodd" clip-rule="evenodd" d="M33.7197 5.24341C32.755 5.24341 31.969 6.06347 31.969 7.07141V12.2335H31.973C31.973 13.8334 30.798 15.1347 29.3539 15.1347C27.9098 15.1347 26.7348 13.8334 26.7348 12.2335H26.7407V7.07141C26.7407 6.06347 25.9548 5.24341 24.9901 5.24341C24.0234 5.24341 23.2395 6.06347 23.2395 7.07141V12.2396C23.2415 15.7577 25.9843 18.6208 29.3539 18.6238C32.7235 18.6202 35.4664 15.7577 35.4703 12.2396V7.07141C35.4703 6.06347 34.6844 5.24341 33.7197 5.24341ZM71.3571 5.24392C67.9875 5.24693 65.2447 8.1094 65.2407 11.6281V16.7957C65.2407 17.8037 66.0266 18.6238 66.9933 18.6238C67.958 18.6238 68.742 17.8037 68.742 16.7957V11.634H68.738C68.738 10.0343 69.913 8.73303 71.3571 8.73303C72.8012 8.73303 73.9762 10.0343 73.9762 11.634H73.9703V16.7957C73.9703 17.8037 74.7562 18.6238 75.7209 18.6238C76.6876 18.6238 77.4715 17.8037 77.4715 16.7957V11.6285C77.4696 8.10999 74.7267 5.24695 71.3571 5.24392Z" fill="#8A8A8A"/>
<mask id="mask2_2004_1800" style="mask-type:luminance" maskUnits="userSpaceOnUse" x="50" y="5" width="14" height="14">
<path d="M50.941 5.24731H63.7652V18.6608H50.941V5.24731Z" fill="white"/>
</mask>
<g mask="url(#mask2_2004_1800)">
<path fill-rule="evenodd" clip-rule="evenodd" d="M57.3109 14.9793C55.7057 14.9793 54.401 13.6158 54.401 11.94C54.401 10.2644 55.7057 8.90126 57.3109 8.90126C58.9161 8.90126 60.2207 10.2644 60.2207 11.94C60.2207 13.6158 58.9161 14.9793 57.3109 14.9793ZM57.3521 5.24585C53.8175 5.24585 50.941 8.24855 50.941 11.9396C50.941 15.4758 53.5817 18.38 56.91 18.6181C58.3267 18.7246 59.7531 18.0267 60.5488 16.6822L60.5508 16.9987C60.5548 17.473 60.7041 17.8715 60.9949 18.1831C61.2896 18.499 61.6806 18.6588 62.16 18.6588C62.6197 18.6588 63.0088 18.499 63.3094 18.1831C63.6119 17.8676 63.7652 17.463 63.7652 16.9812V11.9345C63.7632 8.246 60.8868 5.24585 57.3521 5.24585Z" fill="#8A8A8A"/>
</g>
<mask id="mask3_2004_1800" style="mask-type:luminance" maskUnits="userSpaceOnUse" x="79" y="0" width="12" height="19">
<path d="M79.0709 0H90.4274V18.6224H79.0709V0Z" fill="white"/>
</mask>
<g mask="url(#mask3_2004_1800)">
<path fill-rule="evenodd" clip-rule="evenodd" d="M89.9892 15.8132L86.1383 11.6217L89.7162 8.03714C90.3449 7.4092 90.3645 6.3655 89.7633 5.71083C89.6238 5.55581 89.4529 5.43125 89.2623 5.34442C89.0737 5.25762 88.8674 5.21054 88.6591 5.20606C88.4508 5.2016 88.2426 5.23984 88.05 5.31843C87.8555 5.39702 87.6806 5.51436 87.5352 5.66309L82.5722 10.6354V1.82987C82.5722 0.821956 81.7863 0.00195312 80.8216 0.00195312C79.8549 0.00195312 79.069 0.821956 79.069 1.82987V16.7969C79.069 17.8043 79.8549 18.6244 80.8216 18.6244C81.7863 18.6244 82.5702 17.8043 82.5702 16.7969V12.4909L87.716 18.0908C87.8555 18.2456 88.0264 18.3703 88.215 18.4572C88.4056 18.544 88.61 18.5912 88.8182 18.5957C89.0285 18.6002 89.2348 18.5621 89.4273 18.4837C89.6218 18.4053 89.7967 18.2882 89.9441 18.1395C90.5708 17.5113 90.5905 16.4678 89.9892 15.8132Z" fill="#8A8A8A"/>
</g>
<path fill-rule="evenodd" clip-rule="evenodd" d="M21.3769 5.30622C19.7894 5.07408 18.2725 5.86699 17.465 7.21405V7.07141C17.465 6.06347 16.6791 5.24341 15.7144 5.24341C14.7497 5.24341 13.9637 6.06347 13.9637 7.07141V16.7034C13.9637 17.7113 14.7497 18.5308 15.7144 18.5308C16.6791 18.5308 17.465 17.7113 17.465 16.7034V11.3694C17.5456 9.84942 18.6871 8.64009 20.0782 8.64009C20.2766 8.64009 20.4692 8.66465 20.6558 8.71043C21.5498 8.95505 22.4634 8.39626 22.6972 7.46279C22.7365 7.30188 22.7562 7.13958 22.7522 6.98044C22.7522 6.13283 22.155 5.43081 21.3769 5.30622Z" fill="#8A8A8A"/>
</svg>
